<?xml version="1.0" standalone="no"?>
<!DOCTYPE svg >
<svg version="1.0" xmlns="http://www.w3.org/2000/svg"
 width="2000.000000pt" height="2000.000000pt" viewBox="0 0 2000.000000 2000.000000"
 preserveAspectRatio="xMidYMid meet">

<g transform="translate(0.000000,2000.000000) scale(0.100000,-0.100000)"
fill="#4d3ff5" stroke="none">
<path d="M6110 13612 c0 -4 -17 -15 -37 -25 -21 -10 -49 -24 -62 -31 -47 -28
-124 -112 -149 -166 -14 -30 -30 -58 -34 -61 -5 -3 -8 -1478 -8 -3278 l0
-3272 28 -51 c45 -83 48 -88 97 -138 26 -26 76 -62 112 -80 l65 -33 3266 2
3265 2 60 32 c78 40 176 132 207 194 32 61 30 -194 30 3578 l0 3010 -32 65
c-40 79 -131 171 -220 220 l-63 35 -3262 3 c-1795 1 -3263 -1 -3263 -6z m3135
-1087 c77 -4 149 -10 160 -15 11 -5 47 -11 80 -14 52 -4 124 -14 308 -42 20
-3 40 -10 43 -15 3 -5 18 -9 34 -9 16 0 32 -4 35 -10 3 -5 19 -10 35 -10 16 0
32 -4 35 -10 3 -5 19 -10 36 -10 16 0 29 -4 29 -9 0 -5 22 -12 50 -16 27 -4
52 -11 56 -16 3 -5 16 -9 30 -9 13 0 24 -4 24 -10 0 -5 9 -10 20 -10 11 0 35
-9 55 -20 20 -11 44 -20 55 -20 11 0 20 -4 20 -10 0 -5 9 -10 20 -10 11 0 20
-4 20 -10 0 -5 5 -10 12 -10 16 0 202 -92 206 -102 2 -4 11 -8 20 -8 10 0 41
-16 69 -35 29 -19 55 -35 59 -35 4 0 16 -7 26 -17 19 -17 49 -36 83 -52 12 -5
27 -16 34 -25 7 -9 18 -16 23 -16 6 0 23 -13 38 -30 15 -16 32 -30 37 -30 5 0
26 -16 46 -35 20 -19 40 -35 44 -35 11 0 313 -303 313 -313 0 -5 14 -22 30
-37 17 -15 30 -31 30 -35 0 -3 11 -21 25 -39 14 -18 25 -36 25 -39 0 -4 8 -16
18 -27 21 -25 72 -115 108 -190 52 -110 63 -136 80 -190 9 -30 21 -63 25 -72
5 -10 9 -29 9 -42 0 -14 5 -28 10 -31 6 -3 10 -23 10 -44 0 -20 4 -41 9 -47
21 -21 40 -399 22 -417 -6 -6 -11 -39 -11 -74 0 -35 -4 -63 -10 -63 -5 0 -10
-18 -10 -40 0 -22 -4 -40 -10 -40 -5 0 -10 -15 -10 -34 0 -19 -4 -37 -9 -40
-5 -3 -12 -23 -15 -43 -6 -33 -27 -86 -57 -145 -5 -10 -9 -25 -9 -33 0 -8 -4
-15 -9 -15 -5 0 -11 -8 -14 -17 -9 -28 -65 -121 -113 -191 -24 -35 -44 -65
-44 -68 0 -3 -18 -23 -40 -44 -22 -21 -40 -43 -40 -48 0 -12 -229 -242 -241
-242 -4 0 -24 -16 -45 -35 -20 -19 -42 -35 -48 -35 -6 0 -17 -9 -24 -20 -7
-11 -18 -20 -26 -20 -7 0 -20 -8 -29 -17 -9 -10 -33 -27 -54 -37 -21 -11 -47
-27 -58 -37 -11 -9 -35 -22 -52 -30 -18 -8 -33 -17 -33 -21 0 -5 -6 -8 -14 -8
-8 0 -21 -6 -28 -13 -22 -20 -247 -127 -270 -127 -8 0 -33 -9 -56 -20 -22 -11
-48 -20 -57 -20 -8 0 -15 -4 -15 -10 0 -5 -11 -10 -24 -10 -14 0 -28 -4 -31
-10 -3 -5 -19 -10 -35 -10 -16 0 -31 -4 -35 -10 -3 -5 -33 -12 -66 -16 -32 -4
-62 -11 -65 -15 -3 -5 -21 -9 -40 -9 -19 0 -34 -4 -34 -10 0 -5 -20 -10 -44
-10 -25 0 -48 -4 -51 -10 -3 -5 -26 -10 -50 -10 -24 0 -47 -4 -50 -10 -3 -5
-34 -10 -69 -10 -34 0 -66 -4 -72 -9 -20 -19 -439 -31 -558 -16 l-68 8 7 -239
c8 -285 8 -340 -2 -507 -7 -118 -10 -130 -36 -162 -54 -68 -34 -65 -659 -80
l-226 -6 -17 33 c-10 18 -22 73 -27 123 -4 50 -13 128 -19 175 -5 47 -12 119
-15 160 -2 41 -9 84 -14 95 -5 11 -11 54 -14 95 -5 83 -31 357 -47 490 -5 47
-14 123 -19 170 -9 81 -17 153 -40 343 -5 45 -16 159 -25 252 -9 94 -21 208
-26 255 -5 47 -12 119 -15 160 -3 41 -10 79 -15 84 -5 6 -9 46 -9 91 0 45 -4
85 -9 91 -5 5 -12 45 -15 89 -3 44 -10 118 -15 165 -5 47 -14 134 -20 193 -6
60 -13 113 -16 118 -4 5 -135 9 -316 9 l-309 0 0 79 c0 44 -4 83 -10 86 -5 3
-10 23 -10 44 0 20 -4 41 -9 46 -5 6 -11 28 -14 50 -3 22 -13 81 -22 130 -9
50 -18 108 -21 130 -4 22 -10 44 -15 50 -5 5 -9 24 -9 42 0 18 -4 42 -10 53
-5 11 -14 29 -20 40 -5 11 -10 31 -10 44 0 14 -4 28 -10 31 -5 3 -10 27 -10
53 0 47 0 47 137 184 76 76 141 138 146 138 4 0 22 13 40 30 18 16 35 30 39
30 4 0 18 11 32 25 14 14 28 25 32 25 4 0 16 7 26 17 19 17 42 31 98 59 19 10
53 29 75 44 36 24 129 70 180 90 67 27 85 36 85 42 0 5 8 8 18 8 11 0 33 7 50
15 16 9 53 21 81 28 28 6 51 15 51 19 0 5 13 8 29 8 17 0 33 5 36 10 3 6 19
10 36 10 16 0 29 5 29 10 0 6 15 10 34 10 19 0 38 5 41 10 3 6 19 10 36 10 16
0 37 4 47 10 18 10 142 28 252 37 36 2 69 9 75 14 5 5 65 10 135 10 69 1 139
5 155 9 17 5 55 7 85 4 30 -2 118 -6 195 -9z"/>
<path d="M9436 10738 c-13 -38 -20 -180 -41 -835 -7 -197 -6 -199 44 -164 14
11 53 32 86 47 33 16 69 36 79 46 11 10 26 18 33 18 7 0 13 4 13 9 0 5 8 11
18 15 25 9 82 44 124 77 20 16 40 29 43 29 8 0 42 26 120 93 78 66 174 169
192 205 8 17 19 32 24 32 5 0 9 9 9 19 0 11 5 23 10 26 6 3 10 37 10 74 l0 68
-48 44 c-65 59 -90 79 -101 79 -5 0 -22 7 -37 15 -16 8 -37 15 -46 15 -9 0
-20 5 -23 10 -3 6 -17 10 -30 10 -13 0 -27 5 -30 10 -3 6 -21 10 -39 10 -17 0
-36 4 -41 9 -6 5 -30 12 -55 15 -25 4 -74 11 -110 17 -121 19 -200 22 -204 7z"/>
</g>
</svg>
